<?xml version="1.0" encoding="utf-8"?>
<!-- Generator: Adobe Illustrator 25.2.1, SVG Export Plug-In . SVG Version: 6.00 Build 0)  -->
<svg version="1.1" id="Layer_1" xmlns="http://www.w3.org/2000/svg" xmlns:xlink="http://www.w3.org/1999/xlink" x="0px" y="0px"
	 viewBox="0 0 71 71" style="enable-background:new 0 0 71 71;" xml:space="preserve">
<style type="text/css">
	.st0{fill:#B49D68;}
	.st1{fill:#D6D7F0;}
	.st2{fill:#335E4F;}
	.st3{fill:#BE6C5A;}
	.st4{fill:#613800;}
	.st5{fill:#223320;}
	.st6{fill:#E0900E;}
	.st7{fill:#A79CB4;}
	.st8{fill:#7E9C8D;}
	.st9{fill:none;stroke:#223320;stroke-width:0.7291;stroke-miterlimit:10;}
	.st10{fill:none;stroke:#223320;stroke-width:1.5639;stroke-miterlimit:10;}
	.st11{fill:none;stroke:#613800;stroke-width:2.1421;stroke-miterlimit:10;}
	.st12{fill:none;stroke:#613800;stroke-width:4.5949;stroke-miterlimit:10;}
	.st13{fill:none;stroke:#335E4F;stroke-width:1.071;stroke-miterlimit:10;}
	.st14{fill:none;stroke:#335E4F;stroke-width:2.0886;stroke-miterlimit:10;}
	.st15{fill:none;stroke:#223320;stroke-width:0.6352;stroke-miterlimit:10;}
	.st16{fill:none;stroke:#223320;stroke-width:1.3625;stroke-miterlimit:10;}
</style>
<g>
	<rect x="14.4" y="10.8" class="st1" width="42.3" height="49.3"/>
	<rect x="18.8" y="16.1" class="st2" width="34" height="3.6"/>
	<rect x="18.8" y="25.4" class="st2" width="34" height="1.8"/>
	<rect x="18.8" y="39.2" class="st2" width="34" height="0.9"/>
	<rect x="18.8" y="40.7" class="st2" width="34" height="0.9"/>
	<rect x="18.8" y="42.2" class="st2" width="34" height="0.9"/>
	<rect x="18.8" y="43.7" class="st2" width="34" height="0.9"/>
	<rect x="18.8" y="45.2" class="st2" width="34" height="0.9"/>
	<rect x="18.8" y="46.7" class="st2" width="34" height="0.9"/>
	<rect x="18.8" y="48.2" class="st2" width="34" height="0.9"/>
	<rect x="18.8" y="49.7" class="st2" width="34" height="0.9"/>
	<rect x="18.8" y="51.3" class="st2" width="34" height="0.9"/>
	<rect x="18.8" y="52.8" class="st2" width="34" height="0.9"/>
	<rect x="18.8" y="54.3" class="st2" width="17" height="0.9"/>
	<rect x="18.8" y="28.4" class="st2" width="23.8" height="1.8"/>
	<rect x="18.8" y="31.4" class="st3" width="6.6" height="1.8"/>
</g>
</svg>
