<?xml version="1.0" encoding="utf-8"?>
<!-- Generator: Adobe Illustrator 25.2.1, SVG Export Plug-In . SVG Version: 6.00 Build 0)  -->
<svg version="1.1" id="Layer_1" xmlns="http://www.w3.org/2000/svg" xmlns:xlink="http://www.w3.org/1999/xlink" x="0px" y="0px"
	 viewBox="0 0 71 71" style="enable-background:new 0 0 71 71;" xml:space="preserve">
<style type="text/css">
	.st0{fill:#B49D68;}
	.st1{fill:#D6D7F0;}
	.st2{fill:#335E4F;}
	.st3{fill:#BE6C5A;}
	.st4{fill:#613800;}
	.st5{fill:#223320;}
	.st6{fill:#E0900E;}
	.st7{fill:#A79CB4;}
	.st8{fill:#7E9C8D;}
	.st9{fill:none;stroke:#223320;stroke-width:0.7291;stroke-miterlimit:10;}
	.st10{fill:none;stroke:#223320;stroke-width:1.5639;stroke-miterlimit:10;}
	.st11{fill:none;stroke:#613800;stroke-width:2.1421;stroke-miterlimit:10;}
	.st12{fill:none;stroke:#613800;stroke-width:4.5949;stroke-miterlimit:10;}
	.st13{fill:none;stroke:#335E4F;stroke-width:1.071;stroke-miterlimit:10;}
	.st14{fill:none;stroke:#335E4F;stroke-width:2.0886;stroke-miterlimit:10;}
	.st15{fill:none;stroke:#223320;stroke-width:0.6352;stroke-miterlimit:10;}
	.st16{fill:none;stroke:#223320;stroke-width:1.3625;stroke-miterlimit:10;}
</style>
<g>
	<g>
		<path class="st4" d="M13,9.9C6.6,16.2,2.6,25,2.6,34.8c0,10.5,4.6,19.9,12,26.4c2.8-6.2,4.6-14.7,4.6-24.1
			C19.1,25.9,16.7,16.1,13,9.9z"/>
	</g>
	<path class="st4" d="M16.3,23.2c0,0,5.4-12.6,14.1-6.1s8.2,17.1,2.3,24.3s-11.8,12.8-16.3,9V23.2z"/>
	<path class="st4" d="M16.3,28.4c0,0,4.5-6.8,7.7-6.4c3.2,0.5,10,4.5,8.4,8.7c-1.6,4.2-2.9,9.7-4.8,9.7c-1.8,0,3.7-7.4-1-7
		c-4.7,0.4-5.1-0.2-4.4,4.1s0.5,5.6-1.6,5c-2-0.7-4.3-5-4.3-5V28.4z"/>
	<path class="st14" d="M68.4,29.9c-2,0-3.5,1.6-3.5,3.5s1.6,3.5,3.5,3.5"/>
	<path class="st14" d="M62.8,24.4c-3.3,1.7-5.5,5.1-5.5,9.1c0,3.5,1.8,6.7,4.5,8.5"/>
	<path class="st14" d="M58.1,17.4c-5.1,3.5-8.5,9.3-8.5,16c0,6.7,3.4,12.5,8.5,16"/>
	<path class="st14" d="M53.4,11.2c-6.9,5-11.3,13.1-11.3,22.3c0,9.4,4.7,17.8,11.9,22.7"/>
</g>
</svg>
