<?xml version="1.0" encoding="utf-8"?>
<!-- Generator: Adobe Illustrator 25.2.1, SVG Export Plug-In . SVG Version: 6.00 Build 0)  -->
<svg version="1.1" id="Layer_1" xmlns="http://www.w3.org/2000/svg" xmlns:xlink="http://www.w3.org/1999/xlink" x="0px" y="0px"
	 viewBox="0 0 71 71" style="enable-background:new 0 0 71 71;" xml:space="preserve">
<style type="text/css">
	.st0{fill:#B49D68;}
	.st1{fill:#D6D7F0;}
	.st2{fill:#335E4F;}
	.st3{fill:#BE6C5A;}
	.st4{fill:#613800;}
	.st5{fill:#223320;}
	.st6{fill:#E0900E;}
	.st7{fill:#A79CB4;}
	.st8{fill:#7E9C8D;}
	.st9{fill:none;stroke:#223320;stroke-width:0.7291;stroke-miterlimit:10;}
	.st10{fill:none;stroke:#223320;stroke-width:1.5639;stroke-miterlimit:10;}
	.st11{fill:none;stroke:#613800;stroke-width:2.1421;stroke-miterlimit:10;}
	.st12{fill:none;stroke:#613800;stroke-width:4.5949;stroke-miterlimit:10;}
	.st13{fill:none;stroke:#335E4F;stroke-width:1.071;stroke-miterlimit:10;}
	.st14{fill:none;stroke:#335E4F;stroke-width:2.0886;stroke-miterlimit:10;}
	.st15{fill:none;stroke:#223320;stroke-width:0.6352;stroke-miterlimit:10;}
	.st16{fill:none;stroke:#223320;stroke-width:1.3625;stroke-miterlimit:10;}
</style>
<g>
	
		<rect x="25.4" y="12.7" transform="matrix(0.8558 0.5173 -0.5173 0.8558 17.6755 -13.2404)" class="st4" width="14.4" height="24.8"/>
	<path class="st4" d="M45.2,21.5l-15.1-9.1c-0.7-0.4-0.9-1.3-0.5-1.9v0c0.4-0.7,1.3-0.9,1.9-0.5l15.1,9.1c0.7,0.4,0.9,1.3,0.5,1.9v0
		C46.7,21.7,45.9,21.9,45.2,21.5z"/>
	<path class="st6" d="M41.3,57.7H12.6c-1.7,0-3.1-1.4-3.1-3.1v0c0-1.7,1.4-3.1,3.1-3.1h28.7c1.7,0,3.1,1.4,3.1,3.1v0
		C44.4,56.4,43,57.7,41.3,57.7z"/>
	<path class="st4" d="M64.4,47.3L33.8,28.8c-1-0.6-1.3-1.8-0.7-2.8l0.6-0.9c0.6-1,1.8-1.3,2.8-0.7l28.9,17.4
		C65.3,41.9,65.1,45.2,64.4,47.3z"/>
	<path class="st4" d="M33.8,40.3l-15.1-9.1c-0.7-0.4-0.9-1.3-0.5-1.9l0,0c0.4-0.7,1.3-0.9,1.9-0.5l15.1,9.1c0.7,0.4,0.9,1.3,0.5,1.9
		h0C35.3,40.5,34.5,40.7,33.8,40.3z"/>
	<polygon class="st0" points="33.8,37.2 21.4,29.6 22.8,27.2 35.3,34.8 	"/>
	<polygon class="st0" points="42.3,22.9 30,15.3 31.5,12.9 43.8,20.5 	"/>
	<polygon class="st0" points="41.2,33.3 43.9,29 46.3,30.4 43.6,34.7 	"/>
	<g>
		<path class="st6" d="M45.2,55.1H8.7c-1.7,0-3.1,1.4-3.1,3.1c0,1.7,1.4,3.1,3.1,3.1h36.5c1.7,0,3.1-1.4,3.1-3.1
			C48.3,56.5,46.9,55.1,45.2,55.1L45.2,55.1z"/>
	</g>
	<g>
		<polygon class="st6" points="48.3,58.2 5.7,58.2 5.7,61.2 48.3,61.2 48.3,58.2 		"/>
	</g>
</g>
</svg>
