<?xml version="1.0" encoding="utf-8"?>
<!-- Generator: Adobe Illustrator 25.2.1, SVG Export Plug-In . SVG Version: 6.00 Build 0)  -->
<svg version="1.1" id="Layer_1" xmlns="http://www.w3.org/2000/svg" xmlns:xlink="http://www.w3.org/1999/xlink" x="0px" y="0px"
	 viewBox="0 0 71 71" style="enable-background:new 0 0 71 71;" xml:space="preserve">
<style type="text/css">
	.st0{fill:#B49D68;}
	.st1{fill:#D6D7F0;}
	.st2{fill:#335E4F;}
	.st3{fill:#BE6C5A;}
	.st4{fill:#613800;}
	.st5{fill:#223320;}
	.st6{fill:#E0900E;}
	.st7{fill:#A79CB4;}
	.st8{fill:#7E9C8D;}
	.st9{fill:none;stroke:#223320;stroke-width:0.7291;stroke-miterlimit:10;}
	.st10{fill:none;stroke:#223320;stroke-width:1.5639;stroke-miterlimit:10;}
	.st11{fill:none;stroke:#613800;stroke-width:2.1421;stroke-miterlimit:10;}
	.st12{fill:none;stroke:#613800;stroke-width:4.5949;stroke-miterlimit:10;}
	.st13{fill:none;stroke:#335E4F;stroke-width:1.071;stroke-miterlimit:10;}
	.st14{fill:none;stroke:#335E4F;stroke-width:2.0886;stroke-miterlimit:10;}
	.st15{fill:none;stroke:#223320;stroke-width:0.6352;stroke-miterlimit:10;}
	.st16{fill:none;stroke:#223320;stroke-width:1.3625;stroke-miterlimit:10;}
</style>
<g>
	<rect x="43.8" y="9.4" transform="matrix(0.8298 0.5581 -0.5581 0.8298 15.2377 -23.0875)" class="st4" width="3.2" height="8"/>
	<rect x="13.9" y="19.9" transform="matrix(-0.3577 0.9339 -0.9339 -0.3577 43.3797 17.9256)" class="st4" width="3.2" height="8"/>
	<rect x="16.8" y="48.2" transform="matrix(0.7071 0.7071 -0.7071 0.7071 42.3343 2.2576)" class="st4" width="3.2" height="8"/>
	<rect x="43.8" y="54.9" transform="matrix(0.8214 -0.5704 0.5704 0.8214 -25.4427 36.4451)" class="st4" width="3.2" height="8"/>
	<rect x="32.2" y="54.5" transform="matrix(0.9948 0.1016 -0.1016 0.9948 6.1107 -3.1296)" class="st4" width="3.2" height="8"/>
	<rect x="56.7" y="40.1" transform="matrix(0.5 -0.866 0.866 0.5 -9.0543 72.5619)" class="st4" width="3.2" height="8"/>
	
		<rect x="56.7" y="33.5" transform="matrix(-0.1474 -0.9891 0.9891 -0.1474 29.8304 100.6877)" class="st4" width="3.2" height="8"/>
	<circle class="st3" cx="35.9" cy="36.1" r="24.1"/>
	<rect x="21.7" y="12.2" transform="matrix(0.7631 -0.6462 0.6462 0.7631 -4.968 18.9163)" class="st4" width="3.2" height="8"/>
	<rect x="50" y="48.2" transform="matrix(0.7071 -0.7071 0.7071 0.7071 -21.8262 51.7684)" class="st4" width="3.2" height="8"/>
	<rect x="46.7" y="36.2" transform="matrix(0.4455 -0.8953 0.8953 0.4455 -9.1953 65.5679)" class="st4" width="3.2" height="8"/>
	<rect x="19.1" y="25.2" transform="matrix(0.4455 -0.8953 0.8953 0.4455 -14.5978 34.7359)" class="st4" width="3.2" height="8"/>
	
		<rect x="34.2" y="8" transform="matrix(0.9984 5.713728e-02 -5.713728e-02 0.9984 0.746 -2.0292)" class="st4" width="3.2" height="8"/>
	<rect x="37.2" y="46.2" transform="matrix(0.9891 -0.1474 0.1474 0.9891 -6.9723 6.2627)" class="st4" width="3.2" height="8"/>
	<rect x="27.5" y="37.9" transform="matrix(0.8298 0.5581 -0.5581 0.8298 27.4046 -9.4301)" class="st4" width="3.2" height="4.6"/>
	<rect x="32.2" y="26.2" transform="matrix(0.9415 -0.337 0.337 0.9415 -7.6318 13.0553)" class="st4" width="3.2" height="4.6"/>
	<rect x="35.9" y="34.6" transform="matrix(0.8002 -0.5998 0.5998 0.8002 -14.648 29.8562)" class="st4" width="3.2" height="4.6"/>
	<rect x="23.3" y="52.5" transform="matrix(0.9339 0.3577 -0.3577 0.9339 21.872 -5.185)" class="st4" width="3.2" height="8"/>
	<rect x="44.5" y="18.2" transform="matrix(0.5704 0.8214 -0.8214 0.5704 38.0054 -28.3323)" class="st4" width="3.2" height="8"/>
	<rect x="15.8" y="40.4" transform="matrix(0.4407 0.8977 -0.8977 0.4407 49.6303 9.1856)" class="st4" width="3.2" height="8"/>
	<rect x="55.5" y="24.5" transform="matrix(0.2013 0.9795 -0.9795 0.2013 73.5415 -33.1743)" class="st4" width="3.2" height="8"/>
	<rect x="11" y="32.8" transform="matrix(0.2013 0.9795 -0.9795 0.2013 46.1475 16.9893)" class="st4" width="3.2" height="8"/>
</g>
</svg>
