<?xml version="1.0" encoding="utf-8"?>
<!-- Generator: Adobe Illustrator 25.2.1, SVG Export Plug-In . SVG Version: 6.00 Build 0)  -->
<svg version="1.1" id="Layer_1" xmlns="http://www.w3.org/2000/svg" xmlns:xlink="http://www.w3.org/1999/xlink" x="0px" y="0px"
	 viewBox="0 0 71 71" style="enable-background:new 0 0 71 71;" xml:space="preserve">
<style type="text/css">
	.st0{fill:#B49D68;}
	.st1{fill:#D6D7F0;}
	.st2{fill:#335E4F;}
	.st3{fill:#BE6C5A;}
	.st4{fill:#613800;}
	.st5{fill:#223320;}
	.st6{fill:#E0900E;}
	.st7{fill:#A79CB4;}
	.st8{fill:#7E9C8D;}
	.st9{fill:none;stroke:#223320;stroke-width:0.7291;stroke-miterlimit:10;}
	.st10{fill:none;stroke:#223320;stroke-width:1.5639;stroke-miterlimit:10;}
	.st11{fill:none;stroke:#613800;stroke-width:2.1421;stroke-miterlimit:10;}
	.st12{fill:none;stroke:#613800;stroke-width:4.5949;stroke-miterlimit:10;}
	.st13{fill:none;stroke:#335E4F;stroke-width:1.071;stroke-miterlimit:10;}
	.st14{fill:none;stroke:#335E4F;stroke-width:2.0886;stroke-miterlimit:10;}
	.st15{fill:none;stroke:#223320;stroke-width:0.6352;stroke-miterlimit:10;}
	.st16{fill:none;stroke:#223320;stroke-width:1.3625;stroke-miterlimit:10;}
</style>
<g>
	<path class="st0" d="M56.7,58.2H12.3c-3.3,0-6.1-2.7-6.1-6.1l-3.9-27c0-3.3,2.7-6.1,6.1-6.1l48.3-2c3.3,0,6.1,2.7,6.1,6.1v29
		C62.7,55.5,60,58.2,56.7,58.2z"/>
	<rect x="7.5" y="15.6" class="st1" width="49.9" height="36.1"/>
	<path class="st0" d="M59.1,58.2H14.7c-3.3,0-6.1-2.7-6.1-6.1v-29c0-3.3,2.7-6.1,6.1-6.1h44.4c3.3,0,6.1,2.7,6.1,6.1v29
		C65.1,55.5,62.4,58.2,59.1,58.2z"/>
	<path class="st0" d="M34.9,21.7H20.2c-1.6,0-3-1.3-3-3v-3c0-1.6,1.3-3,3-3h14.7c1.6,0,3,1.3,3,3v3C37.9,20.4,36.5,21.7,34.9,21.7z"
		/>
	<rect x="19.5" y="14.9" class="st2" width="13" height="0.8"/>
	<rect x="19.5" y="16.4" class="st3" width="8.9" height="0.8"/>
	<path class="st1" d="M65.5,49H38.6c-1.8,0-3.2-1.5-3.2-3.2V29.6c0-1.8,1.5-3.2,3.2-3.2h26.8c1.8,0,3.2,1.5,3.2,3.2v16.2
		C68.7,47.6,67.2,49,65.5,49z"/>
	<rect x="38.6" y="31.1" class="st2" width="10.4" height="13.2"/>
	<rect x="50.8" y="31.1" class="st2" width="14.3" height="0.9"/>
	<rect x="50.8" y="32.8" class="st3" width="9.8" height="0.9"/>
	<rect x="50.8" y="43.4" class="st3" width="9.8" height="0.9"/>
	<rect x="50.8" y="36.8" class="st3" width="6.7" height="0.9"/>
	<rect x="58.3" y="36.8" class="st3" width="6.7" height="0.9"/>
	<rect x="50.8" y="38.5" class="st3" width="6.7" height="0.9"/>
	<rect x="58.3" y="38.5" class="st3" width="6.7" height="0.9"/>
	<rect x="50.8" y="40.2" class="st3" width="6.7" height="0.9"/>
	<rect x="58.3" y="40.2" class="st3" width="6.7" height="0.9"/>
</g>
</svg>
