<?xml version="1.0" encoding="utf-8"?>
<!-- Generator: Adobe Illustrator 25.2.1, SVG Export Plug-In . SVG Version: 6.00 Build 0)  -->
<svg version="1.1" id="Layer_1" xmlns="http://www.w3.org/2000/svg" xmlns:xlink="http://www.w3.org/1999/xlink" x="0px" y="0px"
	 viewBox="0 0 71 71" style="enable-background:new 0 0 71 71;" xml:space="preserve">
<style type="text/css">
	.st0{fill:#B49D68;}
	.st1{fill:#D6D7F0;}
	.st2{fill:#335E4F;}
	.st3{fill:#BE6C5A;}
	.st4{fill:#613800;}
	.st5{fill:#223320;}
	.st6{fill:#E0900E;}
	.st7{fill:#A79CB4;}
	.st8{fill:#7E9C8D;}
	.st9{fill:none;stroke:#223320;stroke-width:0.7291;stroke-miterlimit:10;}
	.st10{fill:none;stroke:#223320;stroke-width:1.5639;stroke-miterlimit:10;}
	.st11{fill:none;stroke:#613800;stroke-width:2.1421;stroke-miterlimit:10;}
	.st12{fill:none;stroke:#613800;stroke-width:4.5949;stroke-miterlimit:10;}
	.st13{fill:none;stroke:#335E4F;stroke-width:1.071;stroke-miterlimit:10;}
	.st14{fill:none;stroke:#335E4F;stroke-width:2.0886;stroke-miterlimit:10;}
	.st15{fill:none;stroke:#223320;stroke-width:0.6352;stroke-miterlimit:10;}
	.st16{fill:none;stroke:#223320;stroke-width:1.3625;stroke-miterlimit:10;}
</style>
<g>
	<g>
		<polygon class="st6" points="24.7,7.6 24.7,30 40.7,30 48.6,7.6 		"/>
		<polygon class="st6" points="50.3,25.4 30.2,25.4 30.2,63.4 		"/>
	</g>
	<g>
		<path class="st3" d="M39.5,47.3c-1-0.7-1.9-1.6-2.4-2.8c-1.4-3.2,0.1-7,3.3-8.4c3.2-1.4,7,0.1,8.4,3.3c0.6,1.3,0.7,2.7,0.4,4
			l-1.3,9.9L39.5,47.3z"/>
		<path class="st3" d="M56.2,47.3c1-0.7,1.9-1.6,2.4-2.8c1.4-3.2-0.1-7-3.3-8.4c-3.2-1.4-7,0.1-8.4,3.3c-0.6,1.3-0.7,2.7-0.4,4
			l1.3,9.9L56.2,47.3z"/>
	</g>
	<path class="st7" d="M24.9,21.8c0.8,1.1,1.2,2.5,1.2,4c0,4-3.2,7.2-7.2,7.2s-7.2-3.2-7.2-7.2c0-1.6,0.5-3.1,1.4-4.3l5.7-9.5
		L24.9,21.8z"/>
</g>
</svg>
