<?xml version="1.0" encoding="utf-8"?>
<!-- Generator: Adobe Illustrator 25.2.1, SVG Export Plug-In . SVG Version: 6.00 Build 0)  -->
<svg version="1.1" id="Layer_1" xmlns="http://www.w3.org/2000/svg" xmlns:xlink="http://www.w3.org/1999/xlink" x="0px" y="0px"
	 viewBox="0 0 71 71" style="enable-background:new 0 0 71 71;" xml:space="preserve">
<style type="text/css">
	.st0{fill:#B49D68;}
	.st1{fill:#D6D7F0;}
	.st2{fill:#335E4F;}
	.st3{fill:#BE6C5A;}
	.st4{fill:#613800;}
	.st5{fill:#223320;}
	.st6{fill:#E0900E;}
	.st7{fill:#A79CB4;}
	.st8{fill:#7E9C8D;}
	.st9{fill:none;stroke:#223320;stroke-width:0.7291;stroke-miterlimit:10;}
	.st10{fill:none;stroke:#223320;stroke-width:1.5639;stroke-miterlimit:10;}
	.st11{fill:none;stroke:#613800;stroke-width:2.1421;stroke-miterlimit:10;}
	.st12{fill:none;stroke:#613800;stroke-width:4.5949;stroke-miterlimit:10;}
	.st13{fill:none;stroke:#335E4F;stroke-width:1.071;stroke-miterlimit:10;}
	.st14{fill:none;stroke:#335E4F;stroke-width:2.0886;stroke-miterlimit:10;}
	.st15{fill:none;stroke:#223320;stroke-width:0.6352;stroke-miterlimit:10;}
	.st16{fill:none;stroke:#223320;stroke-width:1.3625;stroke-miterlimit:10;}
</style>
<g>
	<circle class="st4" cx="46.5" cy="31.2" r="14.5"/>
	<path class="st4" d="M57.2,36.1l2-2.5c-1.3-1.1-5.3,1.6-6.4,2.9L36.4,56.3c-1.1,1.3-0.9,3.3,0.4,4.4l0,0c1.3,1.1,3.3,0.9,4.4-0.4
		l16.4-19.8C58.7,39.2,58.5,37.2,57.2,36.1z"/>
	<path class="st4" d="M48.1,36L48.1,36c-1.3-1.1-3.3-0.9-4.4,0.4L25.3,58.7c-1.1,1.3-0.9,3.3,0.4,4.4l0,0c1.3,1.1,3.3,0.9,4.4-0.4
		l18.4-22.3C49.6,39.1,49.4,37.1,48.1,36z"/>
	<path class="st4" d="M39.4,35.4L39.4,35.4c-1.3-1.1-3.3-0.9-4.4,0.4L16.6,58.1c-1.1,1.3-0.9,3.3,0.4,4.4l0,0
		c1.3,1.1,3.3,0.9,4.4-0.4l18.4-22.3C40.9,38.5,40.8,36.5,39.4,35.4z"/>
	<path class="st4" d="M37.2,27L37.2,27c-1.3-1.1-3.3-0.9-4.4,0.4L14.4,49.7c-1.1,1.3-0.9,3.3,0.4,4.4l0,0c1.3,1.1,3.3,0.9,4.4-0.4
		l18.4-22.3C38.8,30.1,38.6,28.1,37.2,27z"/>
	<circle class="st4" cx="42.9" cy="28.6" r="11"/>
	<path class="st4" d="M41.8,20L41.8,20c-0.8-1.5-2.8-2-4.3-1.2L22,24.9c-1.5,0.8-2,2.8-1.2,4.3l0,0c0.8,1.5,2.8,2,4.3,1.2l15.6-6.1
		C42.1,23.4,42.7,21.5,41.8,20z"/>
	<path class="st4" d="M68.7,21.2l-9,10.8c-3.1,3.7-8.6,4.2-12.2,1.1l-1-0.8c-3.7-3.1-4.2-8.6-1.1-12.2L56.2,7.2
		C56.2,7.2,63.9,11.5,68.7,21.2z"/>
	<g>
		<circle class="st6" cx="42.3" cy="36.7" r="9.8"/>
		<path class="st6" d="M40.6,44.7l-4.1-1.2c-0.2-1.2,1.2-0.4,2.4-0.6l17.2-3.1c1.2-0.2,2.3,0.6,2.5,1.7v0c0.2,1.2-0.6,2.3-1.7,2.5
			l-13.7,2.4C41.9,46.6,40.8,45.9,40.6,44.7z"/>
		<path class="st6" d="M40.1,40L40.1,40c-0.2-1.2,0.6-2.3,1.7-2.5l19.3-3.5c1.2-0.2,2.3,0.6,2.5,1.7v0c0.2,1.2-0.6,2.3-1.7,2.5
			l-19.3,3.5C41.4,41.9,40.3,41.2,40.1,40z"/>
		<path class="st6" d="M42.7,34.7L42.7,34.7c-0.2-1.2,0.6-2.3,1.7-2.5l19.3-3.5c1.2-0.2,2.3,0.6,2.5,1.7v0c0.2,1.2-0.6,2.3-1.7,2.5
			l-19.3,3.5C44,36.6,42.9,35.8,42.7,34.7z"/>
		<path class="st6" d="M38.4,30.6L38.4,30.6c-0.2-1.2,0.6-2.3,1.7-2.5l19.3-3.5c1.2-0.2,2.3,0.6,2.5,1.7v0c0.2,1.2-0.6,2.3-1.7,2.5
			l-19.3,3.5C39.7,32.5,38.6,31.7,38.4,30.6z"/>
		<path class="st6" d="M37.2,30.2l-0.6,0.9c-0.6-1-0.3-2.3,0.7-2.9l9.5-8.1c1-0.6,2.3-0.3,2.9,0.7l0,0c0.6,1,0.3,2.3-0.7,2.9
			l-9.5,8.1C38.5,32.4,37.8,31.2,37.2,30.2z"/>
	</g>
	<path class="st6" d="M6,52.4l33.5-7.7c3.4-0.8,5.6-4.2,4.8-7.6l0,0c-0.8-3.4-4.2-5.6-7.6-4.8L3.2,40c-0.4,0.1-0.4,0.1-0.8,0.2
		C2.3,40.2,2.6,46.4,6,52.4z"/>
</g>
</svg>
