<?xml version="1.0" encoding="utf-8"?>
<!-- Generator: Adobe Illustrator 25.2.1, SVG Export Plug-In . SVG Version: 6.00 Build 0)  -->
<svg version="1.1" id="Layer_1" xmlns="http://www.w3.org/2000/svg" xmlns:xlink="http://www.w3.org/1999/xlink" x="0px" y="0px"
	 viewBox="0 0 71 71" style="enable-background:new 0 0 71 71;" xml:space="preserve">
<style type="text/css">
	.st0{fill:#B49D68;}
	.st1{fill:#D6D7F0;}
	.st2{fill:#335E4F;}
	.st3{fill:#BE6C5A;}
	.st4{fill:#613800;}
	.st5{fill:#223320;}
	.st6{fill:#E0900E;}
	.st7{fill:#A79CB4;}
	.st8{fill:#7E9C8D;}
	.st9{fill:none;stroke:#223320;stroke-width:0.7291;stroke-miterlimit:10;}
	.st10{fill:none;stroke:#223320;stroke-width:1.5639;stroke-miterlimit:10;}
	.st11{fill:none;stroke:#613800;stroke-width:2.1421;stroke-miterlimit:10;}
	.st12{fill:none;stroke:#613800;stroke-width:4.5949;stroke-miterlimit:10;}
	.st13{fill:none;stroke:#335E4F;stroke-width:1.071;stroke-miterlimit:10;}
	.st14{fill:none;stroke:#335E4F;stroke-width:2.0886;stroke-miterlimit:10;}
	.st15{fill:none;stroke:#223320;stroke-width:0.6352;stroke-miterlimit:10;}
	.st16{fill:none;stroke:#223320;stroke-width:1.3625;stroke-miterlimit:10;}
</style>
<g>
	<rect x="10.2" y="16.8" class="st1" width="38.5" height="50.2"/>
	<rect x="14.3" y="21.8" class="st2" width="30.9" height="1.6"/>
	<rect x="14.3" y="35.8" class="st2" width="30.9" height="0.8"/>
	<rect x="14.3" y="37.5" class="st7" width="30.9" height="8.9"/>
	<rect x="14.3" y="50" class="st2" width="19.5" height="0.8"/>
	<rect x="14.3" y="51.7" class="st7" width="30.9" height="10.7"/>
	<rect x="14.3" y="24.6" class="st2" width="21.6" height="1.6"/>
	<rect x="14.3" y="27.3" class="st3" width="6" height="1.6"/>
	<g>
		<polygon class="st0" points="35.2,34 32,30.9 29.7,33.3 28.2,38.4 32.9,36.4 		"/>
		<polygon class="st6" points="29.7,33.3 57.5,4 60.8,7.1 32.9,36.4 32.7,34.9 31.3,34.9 31,33.2 		"/>
		
			<rect x="42.8" y="11.1" transform="matrix(-0.7245 -0.6893 0.6893 -0.7245 58.6413 69.8199)" class="st5" width="0.9" height="24.3"/>
		<polygon class="st5" points="28.2,38.4 28.8,36.5 30.2,37.6 		"/>
	</g>
</g>
</svg>
