<?xml version="1.0" encoding="utf-8"?>
<!-- Generator: Adobe Illustrator 25.2.1, SVG Export Plug-In . SVG Version: 6.00 Build 0)  -->
<svg version="1.1" id="Layer_1" xmlns="http://www.w3.org/2000/svg" xmlns:xlink="http://www.w3.org/1999/xlink" x="0px" y="0px"
	 viewBox="0 0 71 71" style="enable-background:new 0 0 71 71;" xml:space="preserve">
<style type="text/css">
	.st0{fill:#B49D68;}
	.st1{fill:#D6D7F0;}
	.st2{fill:#335E4F;}
	.st3{fill:#BE6C5A;}
	.st4{fill:#613800;}
	.st5{fill:#223320;}
	.st6{fill:#E0900E;}
	.st7{fill:#A79CB4;}
	.st8{fill:#7E9C8D;}
	.st9{fill:none;stroke:#223320;stroke-width:0.7291;stroke-miterlimit:10;}
	.st10{fill:none;stroke:#223320;stroke-width:1.5639;stroke-miterlimit:10;}
	.st11{fill:none;stroke:#613800;stroke-width:2.1421;stroke-miterlimit:10;}
	.st12{fill:none;stroke:#613800;stroke-width:4.5949;stroke-miterlimit:10;}
	.st13{fill:none;stroke:#335E4F;stroke-width:1.071;stroke-miterlimit:10;}
	.st14{fill:none;stroke:#335E4F;stroke-width:2.0886;stroke-miterlimit:10;}
	.st15{fill:none;stroke:#223320;stroke-width:0.6352;stroke-miterlimit:10;}
	.st16{fill:none;stroke:#223320;stroke-width:1.3625;stroke-miterlimit:10;}
</style>
<g>
	<g>
		<path class="st0" d="M13.1,57.5L13.1,57.5c-3.6-3.6-3.6-9.5,0-13.1l31.7-31.7c3.6-3.6,9.5-3.6,13.1,0l0,0c3.6,3.6,3.6,9.5,0,13.1
			L26.2,57.5C22.6,61.1,16.7,61.1,13.1,57.5z"/>
	</g>
	<g>
		<path class="st8" d="M13.1,13.5L13.1,13.5c3.6-3.6,9.5-3.6,13.1,0l31.7,31.7c3.6,3.6,3.6,9.5,0,13.1l0,0c-3.6,3.6-9.5,3.6-13.1,0
			L13.1,26.6C9.5,23,9.5,17.1,13.1,13.5z"/>
		
			<rect x="25.7" y="29" transform="matrix(0.7071 0.7071 -0.7071 0.7071 35.4326 -14.2772)" class="st2" width="18.5" height="13.3"/>
		<circle class="st8" cx="35.3" cy="30.7" r="1.4"/>
		<circle class="st8" cx="39.9" cy="35.1" r="1.4"/>
		<circle class="st8" cx="30" cy="35.9" r="1.4"/>
		<circle class="st8" cx="35" cy="35.6" r="1.4"/>
		<circle class="st8" cx="39.5" cy="40.2" r="1.4"/>
		<circle class="st8" cx="30.3" cy="31" r="1.4"/>
		<circle class="st8" cx="34.7" cy="40.3" r="1.4"/>
	</g>
</g>
</svg>
