<?xml version="1.0" encoding="utf-8"?>
<!-- Generator: Adobe Illustrator 25.2.1, SVG Export Plug-In . SVG Version: 6.00 Build 0)  -->
<svg version="1.1" id="Layer_1" xmlns="http://www.w3.org/2000/svg" xmlns:xlink="http://www.w3.org/1999/xlink" x="0px" y="0px"
	 viewBox="0 0 71 71" style="enable-background:new 0 0 71 71;" xml:space="preserve">
<style type="text/css">
	.st0{fill:#B49D68;}
	.st1{fill:#D6D7F0;}
	.st2{fill:#335E4F;}
	.st3{fill:#BE6C5A;}
	.st4{fill:#613800;}
	.st5{fill:#223320;}
	.st6{fill:#E0900E;}
	.st7{fill:#A79CB4;}
	.st8{fill:#7E9C8D;}
	.st9{fill:none;stroke:#223320;stroke-width:0.7291;stroke-miterlimit:10;}
	.st10{fill:none;stroke:#223320;stroke-width:1.5639;stroke-miterlimit:10;}
	.st11{fill:none;stroke:#613800;stroke-width:2.1421;stroke-miterlimit:10;}
	.st12{fill:none;stroke:#613800;stroke-width:4.5949;stroke-miterlimit:10;}
	.st13{fill:none;stroke:#335E4F;stroke-width:1.071;stroke-miterlimit:10;}
	.st14{fill:none;stroke:#335E4F;stroke-width:2.0886;stroke-miterlimit:10;}
	.st15{fill:none;stroke:#223320;stroke-width:0.6352;stroke-miterlimit:10;}
	.st16{fill:none;stroke:#223320;stroke-width:1.3625;stroke-miterlimit:10;}
</style>
<g>
	<g>
		<path class="st6" d="M2.3,18.1l4.8,4.2L9,21.1l2,1.3l2.3-0.8l1.9,1.3l2.9-1.9l1.9,1.7l2-1l2.2,2.5l2.4-1.9l2.2,1.4h1.6
			c1.8,4.4,6.2,7.5,11.2,7.5c6.8,0,12.2-5.4,12.2-12.2S48.3,7,41.6,7c-4.6,0-8.7,2.6-10.7,6.5H6.8L2.3,18.1z M43.9,19.2
			c0-1.7,1.4-3.1,3.1-3.1s3.1,1.4,3.1,3.1s-1.4,3.1-3.1,3.1S43.9,20.9,43.9,19.2z"/>
	</g>
	<path class="st7" d="M40.3,64l3.7-2.7l-0.5-1.6l1.3-1.2l-0.2-1.8l1.2-1.1l-0.9-2.4l1.6-1.1l-0.4-1.6l2.1-1.2l-0.9-2l1.4-1.4
		l0.3-1.1c3.4-0.6,6.3-3.2,7.1-6.8c1.1-4.8-1.9-9.5-6.7-10.6c-4.8-1.1-9.5,1.9-10.6,6.7c-0.7,3.3,0.5,6.6,2.9,8.7L37.7,60L40.3,64z
		 M47.7,34.5c-1.2-0.3-2-1.5-1.7-2.7c0.3-1.2,1.5-2,2.7-1.7c1.2,0.3,2,1.5,1.7,2.7C50.1,34,48.9,34.8,47.7,34.5z"/>
	<path class="st3" d="M67.8,38.7c-1.5-2.5-4.4-3.5-7-2.8c-0.2-2.7-2.1-5.1-5-5.7c-3.4-0.7-6.8,1.5-7.5,4.9c-0.3,1.3-0.1,2.6,0.3,3.7
		l3.3,9.5l0,0l0,0l0,0l0,0l10.1,0c1.2,0.1,2.5-0.2,3.6-0.9C68.6,45.6,69.6,41.7,67.8,38.7z M53.8,36c-1,0-1.7-0.8-1.7-1.7
		s0.8-1.7,1.7-1.7c1,0,1.7,0.8,1.7,1.7S54.7,36,53.8,36z"/>
	<path class="st16" d="M52,34.2c0.6,0.1,1.1,0.2,1.7,0.2c4.7,0,8.5-3.8,8.5-8.5s-3.8-8.5-8.5-8.5c0,0-0.1,0-0.1,0"/>
	<path class="st16" d="M46.7,30.6c0.6,0.9,1.4,1.8,2.4,2.4"/>
	<path class="st16" d="M49.9,18.4c-2.7,1.4-4.6,4.3-4.6,7.6c0,0.5,0,1,0.1,1.5"/>
</g>
</svg>
