<?xml version="1.0" encoding="utf-8"?>
<!-- Generator: Adobe Illustrator 25.2.1, SVG Export Plug-In . SVG Version: 6.00 Build 0)  -->
<svg version="1.1" id="Layer_1" xmlns="http://www.w3.org/2000/svg" xmlns:xlink="http://www.w3.org/1999/xlink" x="0px" y="0px"
	 viewBox="0 0 71 71" style="enable-background:new 0 0 71 71;" xml:space="preserve">
<style type="text/css">
	.st0{fill:#B49D68;}
	.st1{fill:#D6D7F0;}
	.st2{fill:#335E4F;}
	.st3{fill:#BE6C5A;}
	.st4{fill:#613800;}
	.st5{fill:#223320;}
	.st6{fill:#E0900E;}
	.st7{fill:#A79CB4;}
	.st8{fill:#7E9C8D;}
	.st9{fill:none;stroke:#223320;stroke-width:0.7291;stroke-miterlimit:10;}
	.st10{fill:none;stroke:#223320;stroke-width:1.5639;stroke-miterlimit:10;}
	.st11{fill:none;stroke:#613800;stroke-width:2.1421;stroke-miterlimit:10;}
	.st12{fill:none;stroke:#613800;stroke-width:4.5949;stroke-miterlimit:10;}
	.st13{fill:none;stroke:#335E4F;stroke-width:1.071;stroke-miterlimit:10;}
	.st14{fill:none;stroke:#335E4F;stroke-width:2.0886;stroke-miterlimit:10;}
	.st15{fill:none;stroke:#223320;stroke-width:0.6352;stroke-miterlimit:10;}
	.st16{fill:none;stroke:#223320;stroke-width:1.3625;stroke-miterlimit:10;}
</style>
<g>
	<path class="st2" d="M5.6,30.9l47.7-7.5L51.5,9.9l-43.2,10C8.3,19.9,6.4,24.8,5.6,30.9z"/>
	<path class="st8" d="M5.3,33.8L51,26.2l-1.6-12.7l-42,9C7.4,22.5,6.1,27.7,5.3,33.8z"/>
	<path class="st4" d="M5.8,29.7h51.9c0,0,8.1-0.7,8.1,5.1s0,20.4,0,20.4s-0.4,6-7.7,6s-42.3,0-42.3,0S2.7,48,5.8,29.7z"/>
	<path class="st0" d="M56.7,57.9h2.6c1.4,0,2.5-1.1,2.5-2.4V37.7c0-1.3-1.1-2.4-2.5-2.4h-4.9L56.7,57.9z"/>
	<path class="st1" d="M46.9,57.9h2.6c1.4,0,2.5-1.1,2.5-2.4V37.7c0-1.3-1.1-2.4-2.5-2.4h-4.9L46.9,57.9z"/>
	<path class="st3" d="M36.8,57.9h2.6c1.4,0,2.5-1.1,2.5-2.4V37.7c0-1.3-1.1-2.4-2.5-2.4h-4.9L36.8,57.9z"/>
	<path class="st2" d="M5.5,32l50.2,0V18.4l-48.6,5C7.1,23.4,5.8,26.8,5.5,32z"/>
	<path class="st8" d="M6.4,25.7l45.9-3.7V32L5.5,32C5.5,32,5.8,27.9,6.4,25.7z"/>
	<ellipse class="st2" cx="48.3" cy="27.4" rx="2" ry="2.8"/>
	<ellipse transform="matrix(0.9888 -0.1491 0.1491 0.9888 -2.3512 6.9259)" class="st2" cx="45" cy="19.1" rx="2" ry="2.8"/>
	<path class="st2" d="M11.1,32c1.2-2.7,4-4.7,7.4-4.7c3.3,0,6.3,2,7.5,4.7L11.1,32z"/>
</g>
</svg>
