<?xml version="1.0" encoding="utf-8"?>
<!-- Generator: Adobe Illustrator 25.2.1, SVG Export Plug-In . SVG Version: 6.00 Build 0)  -->
<svg version="1.1" id="Layer_1" xmlns="http://www.w3.org/2000/svg" xmlns:xlink="http://www.w3.org/1999/xlink" x="0px" y="0px"
	 viewBox="0 0 71 71" style="enable-background:new 0 0 71 71;" xml:space="preserve">
<style type="text/css">
	.st0{fill:#B49D68;}
	.st1{fill:#D6D7F0;}
	.st2{fill:#335E4F;}
	.st3{fill:#BE6C5A;}
	.st4{fill:#613800;}
	.st5{fill:#223320;}
	.st6{fill:#E0900E;}
	.st7{fill:#A79CB4;}
	.st8{fill:#7E9C8D;}
	.st9{fill:none;stroke:#223320;stroke-width:0.7291;stroke-miterlimit:10;}
	.st10{fill:none;stroke:#223320;stroke-width:1.5639;stroke-miterlimit:10;}
	.st11{fill:none;stroke:#613800;stroke-width:2.1421;stroke-miterlimit:10;}
	.st12{fill:none;stroke:#613800;stroke-width:4.5949;stroke-miterlimit:10;}
	.st13{fill:none;stroke:#335E4F;stroke-width:1.071;stroke-miterlimit:10;}
	.st14{fill:none;stroke:#335E4F;stroke-width:2.0886;stroke-miterlimit:10;}
	.st15{fill:none;stroke:#223320;stroke-width:0.6352;stroke-miterlimit:10;}
	.st16{fill:none;stroke:#223320;stroke-width:1.3625;stroke-miterlimit:10;}
</style>
<g>
	<path class="st0" d="M58.1,55.4c0-12.8-10.4-23.2-23.2-23.2S11.6,42.6,11.6,55.4c0,0,8.9,8.5,24.2,8.5c0,0,10.6,0.6,22.3-7.1V55.4z
		"/>
	<rect x="14.8" y="19.9" class="st5" width="40.1" height="23.8"/>
	<polygon class="st2" points="34.9,42.3 4.9,23.8 34.9,7 64.8,23.8 	"/>
	<polyline class="st10" points="34.9,24.7 62.9,24.7 62.9,40.5 	"/>
	<circle class="st5" cx="34.9" cy="24.7" r="1.9"/>
	<path class="st2" d="M64.8,40.4c0-1-0.8-1.9-1.9-1.9c-1,0-1.9,0.8-1.9,1.9L60,48.2h6.1L64.8,40.4z"/>
	<path class="st3" d="M34.9,43.7v4.4c0,0-0.5,9.3-14.7,12.3c0,0-3.9-0.6-8.5-5c0,0,0.7-10.4,3.2-11.7H34.9z"/>
	<path class="st3" d="M34.9,43.7v4.4c0,0,1.3,10,15.5,13c0,0,4-1.4,7.7-4.2c0,0-0.7-11.8-3.2-13.2H34.9z"/>
</g>
</svg>
