<?xml version="1.0" encoding="utf-8"?>
<!-- Generator: Adobe Illustrator 25.2.1, SVG Export Plug-In . SVG Version: 6.00 Build 0)  -->
<svg version="1.1" id="Layer_1" xmlns="http://www.w3.org/2000/svg" xmlns:xlink="http://www.w3.org/1999/xlink" x="0px" y="0px"
	 viewBox="0 0 71 71" style="enable-background:new 0 0 71 71;" xml:space="preserve">
<style type="text/css">
	.st0{fill:#B49D68;}
	.st1{fill:#D6D7F0;}
	.st2{fill:#335E4F;}
	.st3{fill:#BE6C5A;}
	.st4{fill:#613800;}
	.st5{fill:#223320;}
	.st6{fill:#E0900E;}
	.st7{fill:#A79CB4;}
	.st8{fill:#7E9C8D;}
	.st9{fill:none;stroke:#223320;stroke-width:0.7291;stroke-miterlimit:10;}
	.st10{fill:none;stroke:#223320;stroke-width:1.5639;stroke-miterlimit:10;}
	.st11{fill:none;stroke:#613800;stroke-width:2.1421;stroke-miterlimit:10;}
	.st12{fill:none;stroke:#613800;stroke-width:4.5949;stroke-miterlimit:10;}
	.st13{fill:none;stroke:#335E4F;stroke-width:1.071;stroke-miterlimit:10;}
	.st14{fill:none;stroke:#335E4F;stroke-width:2.0886;stroke-miterlimit:10;}
	.st15{fill:none;stroke:#223320;stroke-width:0.6352;stroke-miterlimit:10;}
	.st16{fill:none;stroke:#223320;stroke-width:1.3625;stroke-miterlimit:10;}
</style>
<g>
	<polyline class="st0" points="32.4,39.6 32.4,35.9 29.7,30.7 27.5,35.9 27.5,39.6 	"/>
	<g>
		<path class="st2" d="M18.9,32.2v1.2c2.8-1.1,4.8-3.7,4.8-6.9c0-4.1-3.3-7.4-7.4-7.4c-1.1,0-2.1,0.2-3,0.7l5.9,5.9l-3.8,3.8
			l-5.9-5.9c-0.4,0.9-0.6,1.9-0.6,2.9c0,3.3,2.1,6,5.1,7v-1.3H18.9z"/>
		<path class="st2" d="M16.3,33.9c-0.8,0-1.6-0.2-2.3-0.4v26.3c1.6,1.1,3.2,2.2,5,3.1V33.4C18.1,33.7,17.2,33.9,16.3,33.9z"/>
		<path class="st2" d="M18.9,33.4v-1.2h-5v1.3c0.7,0.2,1.5,0.4,2.3,0.4C17.2,33.9,18.1,33.7,18.9,33.4z"/>
		<path class="st4" d="M40.2,13.4v53.5c1.7-0.2,3.3-0.5,5-0.8V13.4H40.2z"/>
		<path class="st5" d="M56.9,53.8v7.5c0.3-0.2,0.6-0.4,0.9-0.6v-6.9H56.9z"/>
		<path class="st6" d="M31.4,37l-1.4-1.1L28.8,37l-1.3-1.1V66c1.6,0.4,3.3,0.7,5,0.9v-31L31.4,37z"/>
	</g>
	<path class="st3" d="M57.7,53.2h-0.5c-2.5,0-4.5-2-4.5-4.5v-24c0-2.5,2-4.5,4.5-4.5h0.5c2.5,0,4.5,2,4.5,4.5v24
		C62.2,51.2,60.1,53.2,57.7,53.2z"/>
	<rect x="55.3" y="25.2" class="st7" width="0.9" height="23.8"/>
	<rect x="58.7" y="25.2" class="st7" width="0.9" height="23.8"/>
	<polygon class="st5" points="29.7,30.7 30.8,32.7 28.8,32.9 	"/>
	<g>
		<path class="st5" d="M53.8,16.3h-3.2c-1.1,0-2-0.9-2-2V6c0-1.1,0.9-2,2-2h3.2c1.1,0,2,0.9,2,2v8.3C55.8,15.4,54.9,16.3,53.8,16.3z
			"/>
		<rect x="36" y="5.8" class="st5" width="13.9" height="8.3"/>
		<path class="st5" d="M36,5.8c0,0-6.7,0.7-6.7,10.6h1.3c0,0,0.3-5.3,5.4-5.3V5.8z"/>
	</g>
	<rect x="55.5" y="52.8" class="st3" width="3.8" height="2.6"/>
	<polygon class="st5" points="29.7,40.9 28.8,40.9 28.8,66.3 29.7,66.5 	"/>
</g>
</svg>
