<?xml version="1.0" encoding="utf-8"?>
<!-- Generator: Adobe Illustrator 25.2.1, SVG Export Plug-In . SVG Version: 6.00 Build 0)  -->
<svg version="1.1" id="Layer_1" xmlns="http://www.w3.org/2000/svg" xmlns:xlink="http://www.w3.org/1999/xlink" x="0px" y="0px"
	 viewBox="0 0 71 71" style="enable-background:new 0 0 71 71;" xml:space="preserve">
<style type="text/css">
	.st0{fill:#B49D68;}
	.st1{fill:#D6D7F0;}
	.st2{fill:#335E4F;}
	.st3{fill:#BE6C5A;}
	.st4{fill:#613800;}
	.st5{fill:#223320;}
	.st6{fill:#E0900E;}
	.st7{fill:#A79CB4;}
	.st8{fill:#7E9C8D;}
	.st9{fill:none;stroke:#223320;stroke-width:0.7291;stroke-miterlimit:10;}
	.st10{fill:none;stroke:#223320;stroke-width:1.5639;stroke-miterlimit:10;}
	.st11{fill:none;stroke:#613800;stroke-width:2.1421;stroke-miterlimit:10;}
	.st12{fill:none;stroke:#613800;stroke-width:4.5949;stroke-miterlimit:10;}
	.st13{fill:none;stroke:#335E4F;stroke-width:1.071;stroke-miterlimit:10;}
	.st14{fill:none;stroke:#335E4F;stroke-width:2.0886;stroke-miterlimit:10;}
	.st15{fill:none;stroke:#223320;stroke-width:0.6352;stroke-miterlimit:10;}
	.st16{fill:none;stroke:#223320;stroke-width:1.3625;stroke-miterlimit:10;}
</style>
<g>
	<path class="st6" d="M35.5,66.6c11.4,0,21.6-5,28.7-12.8V37.6c0-3.2-2.6-5.7-5.7-5.7H12.6c-3.2,0-5.7,2.6-5.7,5.7v16.3
		C13.9,61.7,24.1,66.6,35.5,66.6z"/>
	<path class="st12" d="M43.2,42.8H27.8c-1.7,0-3.1-1.4-3.1-3.1V29.1c0-1.7,1.4-3.1,3.1-3.1h15.5c1.7,0,3.1,1.4,3.1,3.1v10.6
		C46.3,41.4,44.9,42.8,43.2,42.8z"/>
	<path class="st4" d="M6.8,37.6c0-3.2,2.6-5.7,5.7-5.7h45.8c3.2,0,5.7,2.6,5.7,5.7v5.8l-28.7,8.5L6.8,43.8V37.6z"/>
	<rect x="34.4" y="48.3" class="st1" width="2.2" height="7.1"/>
	<path class="st2" d="M60.1,11.8c0-1.1-0.2-2.1-0.7-3l-5.9,5.9l-3.8-3.8l5.9-5.9c-0.9-0.4-1.9-0.6-2.9-0.6c-4.1,0-7.4,3.3-7.4,7.4
		c0,4.1,3.3,7.4,7.4,7.4C56.8,19.2,60.1,15.9,60.1,11.8z"/>
	<path class="st2" d="M14.1,8.7c-0.4,0.4-0.8,1-1,1.5l4.8,0.1l0,3.1l-4.8-0.1c0.2,0.5,0.5,1,0.9,1.4c1.7,1.7,4.4,1.7,6.1,0.1
		c1.7-1.7,1.7-4.4,0.1-6.1C18.6,7.1,15.8,7,14.1,8.7z"/>
	
		<rect x="30.1" y="-2.5" transform="matrix(-1.836970e-16 1 -1 -1.836970e-16 44.5006 -20.6385)" class="st2" width="5" height="28.8"/>
</g>
</svg>
